<svg id="myImg" class="mainimage" style="fill: rgb(224, 84, 6);" role="img" xmlns="http://www.w3.org/2000/svg" viewBox="0 0 1000 1000"><title>Homepage SVG icon</title><g><g id="Icons_19_"><path d="M970.8,449.6L561.4,40.2c-33.8-33.7-88.9-33.8-122.8,0L29.2,449.6c-25.6,25.6-25.6,67.1,0,92.7c25.6,25.6,67.1,25.6,92.7,0l55.5-55.5v428.5c0,38.6,31.3,69.8,69.9,69.8h149.2V790.5c0-15.1,12.3-27.4,27.4-27.4h152.3c15.1,0,27.4,12.3,27.4,27.4v194.7h149.2c38.6,0,69.9-31.3,69.9-69.8V486.8l55.5,55.5c12.8,12.8,29.6,19.2,46.4,19.2c16.8,0,33.5-6.4,46.4-19.2C996.4,516.7,996.4,475.2,970.8,449.6z"></path></g></g></svg>